<?xml version="1.0" encoding="utf-8"?>
<!-- Generator: Adobe Illustrator 25.0.0, SVG Export Plug-In . SVG Version: 6.00 Build 0)  -->
<svg version="1.1" id="Camada_1" xmlns="http://www.w3.org/2000/svg" xmlns:xlink="http://www.w3.org/1999/xlink" x="0px" y="0px"
	 viewBox="0 0 178.2 33.1" style="enable-background:new 0 0 178.2 33.1;" xml:space="preserve">
<style type="text/css">
	.st0{fill:#F04646;}
</style>
<g>
	<path class="st0" d="M24.6,31.9c0.1,0.4-0.2,0.8-0.6,0.8c-0.1,0-0.1,0-0.2,0h-4.2c-0.2,0-0.4-0.1-0.5-0.2c-0.2-0.1-0.3-0.3-0.4-0.5
		c-0.1-0.2-0.2-0.4-0.3-0.6c-0.1-0.2-0.1-0.4-0.2-0.5L18,30.4c-0.8,0.8-1.8,1.5-2.9,2c-1.1,0.5-2.3,0.7-3.4,0.7c-3,0-6-1.2-8.2-3.3
		c-1.1-1.1-2-2.4-2.6-3.8c-0.7-1.5-1-3.2-1-4.9c0-1.6,0.3-3.2,0.9-4.7c0.6-1.4,1.4-2.7,2.5-3.8c2.2-2.3,5.2-3.5,8.3-3.5
		c1.3,0,2.6,0.3,3.8,0.8c1.1,0.5,2.1,1.3,2.9,2.3l0.7-2c0.1-0.2,0.2-0.4,0.3-0.6c0.1-0.1,0.3-0.2,0.5-0.2h3.9
		c0.4-0.1,0.8,0.2,0.8,0.6c0,0.1,0,0.1,0,0.2L24.6,31.9z M17.2,18.9c-0.3-0.7-0.7-1.3-1.1-1.8c-0.5-0.5-1.1-0.9-1.8-1.2
		c-1.4-0.6-2.9-0.6-4.3,0c-0.7,0.3-1.2,0.7-1.7,1.2c-0.5,0.5-0.9,1.1-1.2,1.8c-0.3,0.7-0.5,1.5-0.5,2.3c0,0.8,0.1,1.6,0.5,2.3
		c0.3,0.7,0.6,1.3,1.1,1.8c0.5,0.5,1.1,0.9,1.7,1.2c1.4,0.6,3,0.6,4.4,0c0.7-0.3,1.3-0.7,1.8-1.3c0.5-0.5,0.9-1.2,1.2-1.8
		c0.3-0.7,0.4-1.5,0.4-2.2C17.6,20.4,17.5,19.7,17.2,18.9L17.2,18.9z"/>
	<path class="st0" d="M28.9,10.3c-0.1-0.4,0.2-0.8,0.6-0.8c0.1,0,0.1,0,0.2,0h3.1c0.3,0,0.5,0,0.8,0.1c0.2,0.1,0.4,0.4,0.6,0.8
		l0.8,2.1l1.1-1.2c0.4-0.4,0.7-0.7,1.2-1c0.4-0.3,0.9-0.6,1.4-0.8c0.6-0.2,1.3-0.3,1.9-0.3c0.7,0,1.5,0.1,2.2,0.4
		c0.7,0.2,1.3,0.5,1.9,0.9c0.5,0.3,1,0.6,1.5,1c0.4,0.3,0.7,0.5,0.8,0.7c0.3,0.2,0.4,0.4,0.5,0.8c0,0.3-0.1,0.5-0.3,0.7L44.9,17
		c-0.1,0.2-0.3,0.3-0.6,0.4c-0.2,0-0.4-0.1-0.6-0.3c-0.2-0.1-0.4-0.3-0.6-0.5c-0.3-0.2-0.5-0.4-0.8-0.6c-0.3-0.2-0.7-0.3-1-0.5
		c-0.4-0.1-0.9-0.2-1.3-0.2c-0.5,0-1.1,0.1-1.6,0.2c-0.5,0.2-0.9,0.4-1.3,0.8c-0.4,0.4-0.7,0.8-0.9,1.3c-0.2,0.6-0.3,1.2-0.3,1.8
		v12.5c0,0.4-0.2,0.8-0.6,0.8c-0.1,0-0.1,0-0.2,0h-5.4c-0.4,0.1-0.8-0.2-0.8-0.6c0-0.1,0-0.1,0-0.2V10.3z"/>
	<path class="st0" d="M59.9,15.9v16c0,0.4-0.2,0.8-0.6,0.8c-0.1,0-0.1,0-0.2,0h-5.5c-0.4,0-0.8-0.4-0.8-0.8c0,0,0,0,0,0v-16h-2.5
		c-0.4,0-0.7-0.3-0.7-0.7c0,0,0,0,0,0v-4.9c0-0.4,0.2-0.7,0.6-0.7c0,0,0.1,0,0.1,0l0,0c1.4,0,2.5-1.1,2.5-2.6V5.8
		c0-0.2,0-0.5,0.2-0.6c0.2-0.2,0.4-0.4,0.7-0.4l4.8-1.6c0.1,0,0.3-0.1,0.4-0.1c0.3,0,0.5,0.1,0.7,0.3c0.2,0.2,0.3,0.5,0.3,0.9v5.3
		h3.1c0.2,0,0.4,0.1,0.5,0.2c0.1,0.1,0.2,0.3,0.2,0.5v4.9c0.1,0.3-0.2,0.7-0.5,0.7c-0.1,0-0.1,0-0.2,0H59.9z"/>
	<path class="st0" d="M100.9,31.9c0.1,0.4-0.2,0.8-0.6,0.8c-0.1,0-0.1,0-0.2,0h-4.2c-0.2,0-0.4-0.1-0.5-0.2
		c-0.1-0.1-0.3-0.3-0.4-0.5c-0.1-0.2-0.2-0.4-0.3-0.6c-0.1-0.2-0.1-0.4-0.2-0.5l-0.2-0.7c-0.8,0.8-1.8,1.5-2.8,2
		c-1.1,0.5-2.3,0.7-3.4,0.7c-4.7,0-8.9-2.7-10.8-7c-1.3-3.1-1.3-6.5-0.1-9.5c0.6-1.4,1.4-2.7,2.5-3.8c1.1-1.1,2.3-2,3.7-2.6
		c1.5-0.6,3-1,4.6-0.9c1.3,0,2.6,0.3,3.8,0.8c1.1,0.6,2.1,1.3,2.9,2.3l0.7-2c0.1-0.2,0.2-0.4,0.3-0.6c0.1-0.1,0.3-0.2,0.5-0.2h3.9
		c0.4-0.1,0.8,0.2,0.8,0.6c0,0.1,0,0.1,0,0.2V31.9z M93.5,18.9c-0.5-1.4-1.6-2.5-2.9-3.1c-1.4-0.6-2.9-0.6-4.3,0
		c-0.7,0.3-1.2,0.7-1.7,1.2c-0.5,0.5-0.9,1.1-1.2,1.8c-0.3,0.7-0.5,1.5-0.4,2.3c0,0.8,0.1,1.6,0.4,2.3c0.3,0.7,0.6,1.3,1.1,1.8
		c1.6,1.6,4,2.1,6.1,1.2c0.7-0.3,1.3-0.7,1.8-1.2c0.5-0.5,0.9-1.1,1.2-1.8c0.3-0.7,0.4-1.5,0.4-2.2C93.9,20.4,93.7,19.7,93.5,18.9
		L93.5,18.9z"/>
	<path class="st0" d="M113.6,15.9v16c0,0.4-0.2,0.8-0.6,0.8c-0.1,0-0.1,0-0.2,0h-5.4c-0.4,0-0.8-0.4-0.8-0.8c0,0,0,0,0,0v-16H104
		c-0.4,0-0.7-0.3-0.7-0.7v-4.9c0-0.2,0.1-0.4,0.2-0.5c0.1-0.1,0.3-0.2,0.6-0.2l0,0c1.4,0,2.6-1.1,2.6-2.5c0,0,0,0,0,0V5.8
		c0-0.2,0-0.5,0.2-0.6c0.2-0.2,0.4-0.4,0.7-0.4l4.8-1.6c0.1,0,0.3-0.1,0.4-0.1c0.3,0,0.5,0.1,0.7,0.3c0.2,0.2,0.3,0.5,0.3,0.9v5.3
		h3.1c0.2,0,0.4,0.1,0.5,0.2c0.1,0.1,0.2,0.3,0.2,0.5v4.9c0.1,0.3-0.2,0.7-0.5,0.7c-0.1,0-0.1,0-0.2,0L113.6,15.9z"/>
	<path class="st0" d="M144.4,32c-0.2,0.5-0.6,0.8-1.1,0.8h-2.8c-0.5,0-1-0.3-1.1-0.8l-8.9-21.1c-0.2-0.3-0.2-0.7,0-1
		c0.2-0.3,0.5-0.4,0.8-0.4h5.2c0.5,0,1,0.4,1.1,0.9C138.7,13.5,142,23,142,23l4.2-12.7c0.1-0.2,0.2-0.5,0.4-0.6
		c0.2-0.1,0.4-0.2,0.7-0.2h5.6c0.3,0,0.5,0.1,0.6,0.3c0,0.3,0,0.6-0.2,0.9L144.4,32z"/>
	<path class="st0" d="M178.2,31.9c0.1,0.4-0.2,0.8-0.6,0.8c-0.1,0-0.1,0-0.2,0h-4.2c-0.2,0-0.4-0.1-0.5-0.2
		c-0.1-0.1-0.3-0.3-0.4-0.5c-0.1-0.2-0.2-0.4-0.3-0.6c-0.1-0.2-0.1-0.4-0.2-0.5l-0.2-0.7c-0.8,0.8-1.8,1.5-2.9,2
		c-1.1,0.5-2.3,0.7-3.4,0.7c-4.7,0-8.9-2.7-10.8-7c-1.3-3.1-1.3-6.5-0.1-9.5c0.6-1.4,1.5-2.7,2.5-3.8c1.1-1.1,2.3-2,3.7-2.6
		c1.5-0.6,3-1,4.6-0.9c1.3,0,2.6,0.3,3.8,0.8c1.1,0.6,2.1,1.3,2.9,2.3l0.7-2c0.1-0.2,0.2-0.4,0.3-0.6c0.1-0.1,0.3-0.2,0.5-0.2h3.9
		c0.4-0.1,0.8,0.2,0.8,0.6c0,0.1,0,0.1,0,0.2L178.2,31.9z M170.8,18.9c-0.5-1.4-1.6-2.5-2.9-3.1c-1.4-0.6-2.9-0.6-4.3,0
		c-0.7,0.3-1.2,0.7-1.7,1.2c-0.5,0.5-0.9,1.1-1.2,1.8c-0.3,0.7-0.5,1.5-0.4,2.3c0,0.8,0.1,1.6,0.4,2.3c0.3,0.7,0.6,1.3,1.1,1.8
		c1.6,1.6,4,2.1,6.1,1.2c0.7-0.3,1.3-0.7,1.8-1.2c0.5-0.5,0.9-1.1,1.2-1.8c0.3-0.7,0.4-1.5,0.4-2.2
		C171.2,20.4,171.1,19.7,170.8,18.9L170.8,18.9z"/>
	<path class="st0" d="M120.8,10.3c0-0.2,0.1-0.5,0.3-0.6c0.2-0.1,0.3-0.2,0.5-0.2h5.4c0.2,0,0.4,0.1,0.6,0.2
		c0.2,0.2,0.2,0.4,0.2,0.6V32c0.1,0.4-0.2,0.7-0.6,0.8c-0.1,0-0.1,0-0.2,0h-5.4c-0.4,0.1-0.7-0.2-0.8-0.6c0-0.1,0-0.1,0-0.2
		L120.8,10.3z"/>
	<circle class="st0" cx="124.3" cy="3.5" r="3.5"/>
</g>
</svg>
